<svg xmlns="http://www.w3.org/2000/svg" xmlns:xlink="http://www.w3.org/1999/xlink" viewBox="0 0 64 64" width="64px" height="64px"><path fill="#fff" d="M57,32.13c0,13.879-11.251,25.13-25.13,25.13c-0.628,0-1.247-0.019-1.856-0.068 c-0.242-0.019-0.474-0.039-0.715-0.058h-0.01c-2.233-0.232-4.378-0.754-6.398-1.527c-6.978-2.668-12.459-8.351-14.836-15.465 c-0.59-1.73-0.996-3.547-1.189-5.432v-0.01c-0.019-0.242-0.039-0.474-0.058-0.715C6.759,33.377,6.74,32.758,6.74,32.13 C6.74,18.25,17.991,7,31.87,7S57,18.25,57,32.13z"/><circle cx="32" cy="32" r="21.19" fill="#efc88e"/><circle cx="32" cy="32" r="14" fill="#f6d397"/><path fill="#fff" d="M42.12,17.12c-0.29,2.48-3.06,4.24-6.43,4.24c-0.37,0-0.74-0.02-1.12-0.06 c-3.85-0.44-6.72-3.02-6.41-5.76c0.28-2.48,3.06-4.24,6.43-4.24c0.36,0,0.74,0.02,1.11,0.06C39.56,11.8,42.43,14.38,42.12,17.12z"/><path fill="#a1a1e2" d="M23,54.25l-5.82,5.82c-0.77,0.77-1.81,1.19-2.85,1.19c-0.55,0-1.1-0.12-1.63-0.36 c-1.97-0.93-3.91-2.28-5.65-4.02C5,54.83,3.49,52.5,2.57,50.17c-0.58-1.46-0.2-3.14,0.92-4.25l2.97-2.98l2.91-2.9 C11.55,46.58,16.59,51.8,23,54.25z"/><defs><rect id="WF7bdEWSjjr9aIPVlQve8a" width="67.059" height="64.824" x="-115" y="-108.353"/></defs><clipPath id="WF7bdEWSjjr9aIPVlQve8b"><use overflow="visible" xlink:href="#WF7bdEWSjjr9aIPVlQve8a"/></clipPath><path fill="#8d6c9f" d="M32,53.192c-11.686,0-21.192-9.507-21.192-21.192S20.314,10.808,32,10.808S53.192,20.314,53.192,32 S43.686,53.192,32,53.192z M32,12.808c-10.583,0-19.192,8.609-19.192,19.192S21.417,51.192,32,51.192S51.192,42.583,51.192,32 S42.583,12.808,32,12.808z"/><path fill="#8d6c9f" d="M8.651,43.587c2.322,4.841,6.129,8.788,10.892,11.292l-3.782,3.782 c-0.382,0.382-0.903,0.601-1.429,0.601c-0.273,0-0.534-0.058-0.777-0.172c-1.838-0.864-3.552-2.083-5.093-3.623 c-1.789-1.789-3.182-3.873-4.03-6.027c-0.28-0.713-0.096-1.539,0.47-2.105l2.975-2.975L8.651,43.587 M9.368,40.041l-2.904,2.904 L3.489,45.92c-1.114,1.114-1.494,2.785-0.917,4.251c0.918,2.333,2.424,4.656,4.477,6.709c1.743,1.743,3.682,3.092,5.656,4.019 c0.521,0.245,1.075,0.362,1.627,0.362c1.043,0,2.074-0.418,2.843-1.187L23,54.25C16.588,51.799,11.553,46.577,9.368,40.041 L9.368,40.041z"/><path fill="#8d6c9f" d="M34.588,13.3L34.588,13.3c0.293,0,0.592,0.017,0.889,0.051c2.941,0.334,4.812,2.138,4.651,3.548 c-0.157,1.382-2.107,2.465-4.44,2.465c-0.293,0-0.592-0.017-0.889-0.051c-1.433-0.163-2.766-0.715-3.657-1.516 c-0.415-0.373-1.096-1.132-0.994-2.031C30.305,14.383,32.255,13.3,34.588,13.3 M34.588,11.3c-3.37,0-6.146,1.764-6.427,4.239 c-0.312,2.744,2.56,5.323,6.413,5.761c0.377,0.043,0.749,0.064,1.115,0.064c3.37,0,6.146-1.764,6.427-4.239 c0.312-2.744-2.56-5.323-6.413-5.761C35.325,11.321,34.953,11.3,34.588,11.3L34.588,11.3z"/><path fill="#8d6c9f" d="M22,50c-0.256,0-0.512-0.098-0.707-0.293c-0.391-0.391-0.391-1.023,0-1.414l5-5 c0.38-0.382,0.995-0.392,1.389-0.024c0.999,0.931,2.641,1.549,4.285,1.612c1.043,0.045,3.007-0.114,4.398-1.607 c1.139-1.223,1.819-2.726,1.915-4.231c0.09-1.43-0.365-2.688-1.282-3.543c-0.498-0.464-0.984-0.82-1.462-1.071 c-0.089,1.597-0.716,3.086-1.805,4.254c-0.257,0.276-0.562,0.518-0.906,0.719c-1.271,0.741-2.798,0.471-3.801-0.669 c-1.001-1.137-1.076-2.743-0.184-3.907c0.136-0.177,0.278-0.346,0.427-0.505c1.228-1.317,2.533-2.08,3.869-2.286 c-0.254-0.588-0.619-1.116-1.077-1.543c-0.72-0.67-1.63-1.03-2.582-1.092c-0.208,1.734-1.016,3.427-2.302,4.807 c-0.914,0.956-2.274,1.081-3.345,0.35c-1.099-0.751-1.483-2.097-0.938-3.272c0.262-0.561,0.625-1.1,1.053-1.56 c0.992-1.065,2.22-1.772,3.502-2.106c-0.159-0.832-0.545-1.556-1.132-2.103c-0.862-0.803-2.074-1.146-3.41-0.966 c-1.411,0.19-2.781,0.932-3.857,2.087c-2.006,2.154-0.402,7.737,1.633,9.634c0.198,0.185,0.313,0.442,0.318,0.714 s-0.101,0.533-0.293,0.725l-5,5c-0.391,0.391-1.023,0.391-1.414,0s-0.391-1.023,0-1.414l4.331-4.331 c-2.16-2.779-3.864-8.655-1.038-11.69c1.39-1.492,3.185-2.453,5.053-2.705c1.94-0.262,3.732,0.266,5.041,1.484 c0.944,0.88,1.548,2.035,1.763,3.346c1.457,0.058,2.868,0.595,3.98,1.631c0.898,0.837,1.548,1.941,1.878,3.156 c1.025,0.297,2.053,0.914,3.061,1.853c1.364,1.27,2.044,3.093,1.914,5.133c-0.124,1.966-0.993,3.907-2.447,5.468 c-1.435,1.539-3.53,2.334-5.939,2.243c-1.768-0.069-3.501-0.632-4.813-1.541l-4.368,4.368C22.512,49.902,22.256,50,22,50z M33.547,34.006c-0.945,0.107-1.874,0.665-2.815,1.676c-0.104,0.113-0.206,0.233-0.304,0.36c-0.49,0.64-0.004,1.252,0.098,1.368 c0.099,0.112,0.626,0.649,1.293,0.262c0.175-0.102,0.326-0.221,0.45-0.354C33.104,36.422,33.553,35.253,33.547,34.006z M27.395,29.73c-0.723,0.281-1.407,0.734-1.984,1.354c-0.286,0.308-0.529,0.668-0.703,1.041c-0.197,0.426,0.144,0.703,0.252,0.777 c0.157,0.107,0.461,0.244,0.734-0.042C26.561,31.931,27.145,30.847,27.395,29.73z"/><path fill="#8d6c9f" d="M32,58c-0.694,0-1.324-0.023-1.925-0.07l-0.714-0.058c-2.301-0.238-4.527-0.77-6.651-1.583 c-7.288-2.785-12.883-8.617-15.351-16.001C6.74,38.475,6.326,36.582,6.13,34.67c-0.003-0.034-0.005-0.068-0.005-0.103L6.07,33.927 C6.023,33.324,6,32.694,6,32C6,17.663,17.663,6,32,6s26,11.663,26,26c0,1.796-0.184,3.589-0.547,5.329 c-0.112,0.54-0.639,0.888-1.183,0.774c-0.541-0.112-0.888-0.642-0.774-1.183C55.83,35.315,56,33.659,56,32 C56,18.767,45.233,8,32,8S8,18.767,8,32c0,0.642,0.021,1.22,0.064,1.767l0.058,0.71c0.179,1.751,0.561,3.495,1.132,5.171 c2.279,6.82,7.443,12.203,14.171,14.773c1.96,0.751,4.017,1.242,6.111,1.459l-0.001,0.003l0.7,0.053C30.78,55.979,31.358,56,32,56 c2.82,0,5.582-0.484,8.208-1.439c0.517-0.189,1.093,0.079,1.281,0.598c0.189,0.519-0.078,1.093-0.598,1.281 C38.046,57.475,35.055,58,32,58z"/><g><path fill="#8d6c9f" d="M18.096,58.638C10.722,55.38,6.819,49.653,4.844,45.423l1.812-0.846 c1.83,3.92,5.441,9.225,12.248,12.23L18.096,58.638z"/></g><g><path fill="#8d6c9f" d="M56.215,43.174c-0.09,0.008-0.18,0.004-0.273-0.013l-1.966-0.368 c-0.542-0.101-0.9-0.624-0.798-1.167c0.102-0.543,0.625-0.9,1.167-0.798l1.966,0.368c0.542,0.101,0.9,0.624,0.798,1.167 C57.026,42.813,56.65,43.136,56.215,43.174z"/><path fill="#8d6c9f" d="M54.2,48.585c-0.198,0.017-0.405-0.025-0.59-0.133l-1.728-1.007 c-0.477-0.277-0.639-0.89-0.36-1.368c0.277-0.476,0.891-0.639,1.368-0.36l1.728,1.007c0.477,0.277,0.639,0.89,0.36,1.368 C54.808,48.383,54.512,48.558,54.2,48.585z"/><path fill="#8d6c9f" d="M50.493,53.008c-0.312,0.027-0.633-0.092-0.851-0.35l-1.292-1.526 c-0.357-0.421-0.305-1.052,0.116-1.41c0.419-0.356,1.053-0.304,1.41,0.116l1.292,1.526c0.357,0.421,0.305,1.052-0.116,1.41 C50.887,52.913,50.691,52.991,50.493,53.008z"/><path fill="#8d6c9f" d="M45.513,55.933c-0.435,0.038-0.861-0.215-1.022-0.643l-0.704-1.872 c-0.194-0.517,0.067-1.094,0.583-1.288c0.518-0.193,1.095,0.066,1.288,0.583l0.704,1.872c0.194,0.517-0.067,1.094-0.583,1.288 C45.692,55.906,45.603,55.925,45.513,55.933z"/></g></svg>